<svg xmlns="http://www.w3.org/2000/svg" width="32" height="32" viewBox="0 0 32 32" fill="none">
<g clip-path="url(#clip0_5133_18181)">
<rect width="32" height="32" fill="#04297F"/>
<mask id="mask0_5133_18181" style="mask-type:luminance" maskUnits="userSpaceOnUse" x="21" y="0" width="9" height="8">
<path d="M21.2324 0H29.2711V7.25107H21.2324V0Z" fill="white"/>
</mask>
<g mask="url(#mask0_5133_18181)">
<path fill-rule="evenodd" clip-rule="evenodd" d="M28.4802 1.80908C28.3965 2.59636 28.3643 3.37706 28.3788 4.14241C28.6396 3.97903 28.8989 3.81237 29.1573 3.64241C29.0881 2.4911 29.1155 1.28058 29.2507 0.000976562C26.795 2.89241 24.2395 5.39679 21.4102 6.8321C21.4504 6.91214 21.485 6.99657 21.5164 7.08758C23.6533 6.00315 26.6243 3.99329 28.4802 1.80908Z" fill="#FFFFFE"/>
</g>
<mask id="mask1_5133_18181" style="mask-type:luminance" maskUnits="userSpaceOnUse" x="29" y="7" width="3" height="6">
<path d="M29.8896 7.25098H32V12.0229H29.8896V7.25098Z" fill="white"/>
</mask>
<g mask="url(#mask1_5133_18181)">
<path fill-rule="evenodd" clip-rule="evenodd" d="M30.5677 8.47372C30.376 8.82789 30.1981 9.18754 30.0322 9.55376C30.0483 10.3158 30.1055 11.0735 30.2013 11.8279C30.5982 10.2928 31.1852 8.77306 32 7.27197C31.3543 7.46934 30.7102 7.65136 30.0685 7.81364C30.0516 8.08337 30.0403 8.35311 30.0338 8.62175C30.2158 8.5757 30.3937 8.52745 30.5677 8.47482V8.47372Z" fill="#FFFFFE"/>
</g>
<path fill-rule="evenodd" clip-rule="evenodd" d="M21.1832 7.7686C21.1671 7.66224 21.1454 7.55917 21.1172 7.46049C24.3982 6.89909 27.585 5.10523 30.738 2.86401C29.1502 8.34974 29.7855 13.2149 31.5206 17.7741L22.271 14.9977C22.3394 14.7795 22.3934 14.5493 22.436 14.3124L29.9497 16.4868C28.6381 13.0427 28.3829 8.67211 29.581 4.52739C27.1993 6.22036 23.6615 7.34536 21.1832 7.7697V7.7686Z" fill="#FFFFFE"/>
<path fill-rule="evenodd" clip-rule="evenodd" d="M28.1992 7.38344L28.2153 7.25439C28.2097 7.29741 28.2048 7.34042 28.1992 7.38344Z" fill="#FFFFFE"/>
<path fill-rule="evenodd" clip-rule="evenodd" d="M28.2539 6.97547C28.2595 6.93356 28.266 6.89054 28.2716 6.84863C28.266 6.89165 28.2595 6.93356 28.2539 6.97547Z" fill="#FFFFFE"/>
<path fill-rule="evenodd" clip-rule="evenodd" d="M28.2725 6.84632C28.2789 6.80441 28.2853 6.76139 28.2918 6.71948L28.2725 6.84632Z" fill="#FFFFFE"/>
<path fill-rule="evenodd" clip-rule="evenodd" d="M28.2939 6.70345C28.3004 6.66595 28.306 6.62734 28.3124 6.58984C28.306 6.62845 28.2996 6.66595 28.2939 6.70345Z" fill="#FFFFFE"/>
<path fill-rule="evenodd" clip-rule="evenodd" d="M28.3145 6.57411C28.3217 6.5311 28.3281 6.48698 28.3354 6.44507C28.3281 6.48808 28.3217 6.5311 28.3145 6.57411Z" fill="#FFFFFE"/>
<path fill-rule="evenodd" clip-rule="evenodd" d="M27.8524 3.86736C27.8532 4.06363 27.8572 4.261 27.8637 4.45727C27.6704 4.5735 27.4756 4.68753 27.2799 4.80047C27.2566 4.78622 27.234 4.76977 27.2123 4.75113C27.1253 4.67876 27.0569 4.57898 27.0094 4.46495C26.4474 4.95179 25.8548 5.4167 25.2525 5.85091C24.8991 6.01319 24.544 6.1656 24.1865 6.30595C24.5835 6.04499 24.9756 5.77196 25.3612 5.48907C26.1173 4.93424 26.8588 4.33008 27.5649 3.66451L27.8508 3.39478L27.8532 3.86736H27.8524Z" fill="#FFFFFE"/>
<path fill-rule="evenodd" clip-rule="evenodd" d="M3.57134 6.16548C3.60918 6.58763 3.63172 7.01087 3.64138 7.43302L3.83462 7.47908C3.8314 7.30364 3.82496 7.1282 3.81691 6.95276C3.92721 6.94728 4.03752 6.90232 4.13736 6.8146C4.23156 6.73237 4.30483 6.62162 4.35395 6.49662L7.27021 8.2817L8.02625 8.45824L3.53027 5.70605L3.57134 6.16548Z" fill="#FFFFFE"/>
<path fill-rule="evenodd" clip-rule="evenodd" d="M2.01824 7.05488C1.95866 5.63384 1.77267 4.21059 1.48926 2.78735L9.61889 7.86409L9.71551 7.9233C9.61808 8.10861 9.53435 8.30927 9.45866 8.51869L9.2453 8.38821L2.76543 4.42222C2.94981 5.35094 3.05931 6.31914 3.0891 7.30488L2.01824 7.05488Z" fill="#FFFFFE"/>
<mask id="mask2_5133_18181" style="mask-type:luminance" maskUnits="userSpaceOnUse" x="0" y="12" width="2" height="6">
<path d="M0 12.3037H1.85749V17.0756H0V12.3037Z" fill="white"/>
</mask>
<g mask="url(#mask2_5133_18181)">
<path fill-rule="evenodd" clip-rule="evenodd" d="M1.3277 15.6929C1.4992 15.3442 1.65701 14.989 1.80274 14.6293C1.76248 13.9034 1.68358 13.1831 1.56683 12.4692C1.23833 13.9583 0.727858 15.4451 0 16.9287C0.610306 16.7006 1.219 16.4868 1.82609 16.2938C1.83253 16.0339 1.83494 15.7762 1.83253 15.5197C1.66023 15.5734 1.49195 15.6315 1.3277 15.6929Z" fill="#FFFFFE"/>
</g>
<path fill-rule="evenodd" clip-rule="evenodd" d="M8.98475 16.1535L8.992 16.4901C6.37686 17.4002 3.84707 19.0767 1.35109 21.0592C2.68523 15.7247 1.91873 11.1195 0.110352 6.8728L9.03306 8.95832C8.97428 9.17104 8.9308 9.39363 8.89779 9.62279L1.65302 8.00657C3.01937 11.2149 3.40826 15.3717 2.40021 19.4013C4.2271 17.9495 6.81406 16.819 8.98475 16.1546V16.1535Z" fill="#FFFFFE"/>
<path fill-rule="evenodd" clip-rule="evenodd" d="M3.33623 17.4473C3.69452 14.7532 3.51336 11.955 2.76215 9.40895L2.63574 8.98022L9.00692 10.4013L8.99001 10.6447C8.97391 10.8695 8.96022 11.0943 8.94331 11.3201C8.91111 11.739 8.89581 12.1732 8.90547 12.5953C8.90627 12.6513 8.90949 12.739 8.91513 12.8432L8.93929 13.9956C8.64299 13.4309 8.70177 11.9572 8.75249 11.2927C8.7694 11.0723 8.78309 10.8464 8.79919 10.6195L2.9409 9.31246L3.58099 9.455C3.55764 9.59316 3.50772 9.72584 3.43204 9.83877C3.35233 9.9572 3.2541 10.0394 3.14943 10.0833C3.66392 12.1721 3.81851 14.3991 3.62528 16.5877L3.63333 16.4934C3.80482 16.467 3.98357 16.5372 4.12044 16.705C4.19935 16.8037 4.25571 16.9232 4.28792 17.0537L4.22753 17.0866C5.74444 16.2488 7.42157 15.5855 8.96264 15.1282L8.96827 15.3925C8.00933 15.6776 7.05684 16.0263 6.1285 16.4309C5.27262 16.8048 4.42399 17.2313 3.60354 17.7313L3.27181 17.9341L3.33623 17.4473Z" fill="#FFFFFE"/>
<path fill-rule="evenodd" clip-rule="evenodd" d="M3.62525 16.5898L3.61426 16.7134C3.61818 16.6726 3.62133 16.6307 3.62525 16.5898Z" fill="#FFFFFE"/>
<path fill-rule="evenodd" clip-rule="evenodd" d="M3.57317 17.1074C3.56831 17.1482 3.56345 17.189 3.55859 17.2298L3.57317 17.1074Z" fill="#FFFFFE"/>
<path fill-rule="evenodd" clip-rule="evenodd" d="M15.4232 6.13284V6.05937C15.4232 5.80609 15.4868 5.57144 15.5947 5.38503C15.7429 5.12736 15.9739 4.96069 16.2324 4.96069H17.3612C17.8057 4.96069 18.1704 5.45521 18.1704 6.05937V16.2457C18.1704 16.3379 18.1623 16.4267 18.1462 16.5122H15.4474C15.4313 16.4267 15.4232 16.3379 15.4232 16.2457V16.1734C15.4232 13.7205 15.4232 8.59336 15.4232 6.13284ZM21.3266 9.6712L21.0706 14.9464C21.0351 15.0177 20.9441 15.1361 20.9119 15.1778C20.7525 15.3839 20.5915 15.5791 20.4393 15.794C20.1583 16.1887 19.8572 16.5122 19.4345 16.5122H18.7928C18.7775 16.4914 18.7638 16.4683 18.7501 16.4453C18.643 16.2589 18.5794 16.0243 18.5794 15.771V6.71836C18.5794 6.46507 18.643 6.23043 18.7501 6.04402C18.8991 5.78635 19.1301 5.61968 19.3886 5.61968H20.5174C20.9619 5.61968 21.3266 6.1142 21.3266 6.71946V9.6712ZM15.0029 15.9936V16.0034C15.0029 16.1865 14.9691 16.3598 14.9103 16.5122H14.5359C14.2565 16.5122 13.9876 16.6438 13.7936 16.9245C13.7549 16.9815 13.7211 17.0407 13.6921 17.1021H13.0649C12.8065 17.1021 12.5754 16.9365 12.4272 16.6778C12.3201 16.4914 12.2557 16.2567 12.2557 16.0034V6.95082C12.2557 6.69753 12.3201 6.46288 12.4272 6.27648C12.5754 6.0188 12.8065 5.85214 13.0649 5.85214H14.1937C14.639 5.85214 15.0021 6.34665 15.0021 6.95082V15.9936H15.0029ZM21.544 14.2567L21.7461 14.396C21.759 14.34 21.7718 14.283 21.7831 14.226L21.6229 14.18L21.7348 13.1131C21.7598 12.8762 21.7831 12.6394 21.8097 12.4037C21.854 12.0034 21.883 11.5955 21.8878 11.1898C21.8902 11.0418 21.8846 10.7129 21.8572 10.4914L21.7082 10.4179L21.5198 14.3181L21.5448 14.2567H21.544ZM18.6744 20.8126C21.482 20.8126 21.8757 20.2315 23.1833 18.1953L21.2219 16.8148L20.5987 16.3762C20.4087 16.6186 20.2042 16.8192 19.9715 16.9431L19.9675 16.9453L19.928 16.965L19.9087 16.9749L19.9063 16.976L19.8878 16.9837L19.8846 16.9859L19.8652 16.9936L19.8628 16.9946L19.8435 17.0023L19.8403 17.0034L19.821 17.0111L19.8185 17.0122L19.8105 17.0144L19.796 17.0199L19.7751 17.0264L19.7726 17.0275L19.7517 17.033L19.7501 17.0341L19.7396 17.0363L19.7034 17.0462L19.6825 17.0517H19.6801L19.6583 17.056L19.6567 17.0571L19.6342 17.0604L19.6325 17.0615L19.61 17.0648L19.6092 17.0659L19.5858 17.0692H19.5842L19.5609 17.0714H19.5601L19.5351 17.0747L19.511 17.0769L19.486 17.078H19.4611L19.4353 17.0791C19.4353 17.0802 17.8612 17.0791 17.7251 17.0791H15.7364C15.11 17.0791 13.8371 16.7041 13.9828 18.0747C14.044 18.6536 14.3032 19.3378 14.3974 19.7117C14.5512 20.3159 15.0408 20.8115 15.486 20.8115H18.6744V20.8126ZM9.21387 14.9618V9.2052L9.21789 9.19314L9.21387 9.19204V8.31814C9.21387 8.06375 9.27828 7.8302 9.38536 7.6438C9.53351 7.38503 9.76459 7.21836 10.0222 7.21836H11.1519C11.5963 7.21836 11.9602 7.71397 11.9602 8.31814V15.8477C11.9602 16.453 11.5963 16.9464 11.1519 16.9464H10.0222C9.76459 16.9464 9.53351 16.7808 9.38536 16.5221C9.27828 16.3357 9.21387 16.101 9.21387 15.8477V14.9749L9.21789 14.9727L9.21387 14.9607V14.9618Z" fill="#FFFFFE"/>
<path fill-rule="evenodd" clip-rule="evenodd" d="M22.12 20.1743C21.9863 20.33 21.8446 20.4748 21.694 20.6031C20.7915 21.3673 19.5725 21.3947 18.5427 21.3947H15.5024C15.1804 21.3947 14.8583 21.2171 14.5982 20.9342C14.3655 20.6831 14.1812 20.3476 14.0886 19.9824C14.0048 19.6535 13.8881 19.3355 13.8027 19.0011C13.7472 18.7818 13.6989 18.5537 13.6747 18.3224C13.6578 18.1656 13.6546 18.0088 13.6683 17.8574H13.1949C12.8333 17.8574 12.4944 17.6305 12.273 17.2456L12.2391 17.1831C12.025 17.5066 11.715 17.7094 11.3712 17.7094H10.2947C10.0813 17.7094 9.87601 17.6316 9.69727 17.4868C9.69727 20.4682 10.3148 22.8136 12.3156 23.4945C12.2713 23.4802 12.7424 25.0493 12.8044 25.3256C12.9678 26.0493 13.1087 26.9013 13.2158 27.9133H18.7085C18.8148 26.9013 18.9557 26.0493 19.1184 25.3256C19.2963 24.5405 19.5 23.9057 19.7158 23.3783C19.6449 23.4024 22.12 22.4254 22.12 20.1743ZM21.0757 28.2916L20.3583 26.4364C20.2657 26.9024 20.1844 27.3947 20.1047 27.9386L20.0821 28.0954C20.413 28.1535 20.7448 28.2193 21.0757 28.2916ZM18.9581 27.4857C18.9404 27.6304 18.9243 27.7741 18.9082 27.9199L19.0676 27.9386C19.2899 27.9682 19.5121 28.0011 19.7335 28.0372L19.7174 27.9605C19.5515 27.1765 19.6924 26.2796 19.9606 25.4068L19.8382 25.091L19.5725 24.4046C19.4726 24.7313 19.3857 25.0669 19.31 25.4046C19.1562 26.0844 19.0443 26.7829 18.9581 27.4857Z" fill="#FFFFFE"/>
<path fill-rule="evenodd" clip-rule="evenodd" d="M19.9085 27.8848C20.1186 26.4528 20.3288 24.9671 21.3151 22.7883C20.58 24.2324 19.5808 26.3344 19.9085 27.8848ZM10.9536 26.7225C10.7974 25.6545 10.6404 24.5482 9.90527 22.9232C10.4528 23.9999 11.1983 25.5679 10.9536 26.7225ZM12.022 27.8848C12.3497 26.3344 11.3497 24.2324 10.6154 22.7883C11.6017 24.9671 11.8119 26.4528 12.022 27.8848ZM20.9769 26.7225C20.7322 25.5679 21.4777 23.9999 22.0252 22.9232C21.2901 24.5482 21.1331 25.6545 20.9769 26.7225Z" fill="#FFFFFE"/>
<path fill-rule="evenodd" clip-rule="evenodd" d="M19.9633 27.8485L19.9174 28.1643L19.8618 27.9034C19.6944 27.1106 19.8635 26.1819 20.1686 25.2696C20.4705 24.3672 20.9053 23.479 21.2733 22.7554L21.2749 22.751L21.3562 22.8222C20.386 24.967 20.1702 26.4374 19.9633 27.8496V27.8485ZM19.9077 27.5547C20.0543 26.5689 20.2274 25.5372 20.6718 24.2554C20.5205 24.6029 20.3788 24.9626 20.2572 25.3233C20.0011 26.092 19.8417 26.8683 19.9077 27.5547ZM10.9061 26.7356L10.9013 26.6994C10.7467 25.649 10.5865 24.5547 9.86426 22.9582L9.94477 22.8858L9.94719 22.8902C10.2217 23.4297 10.5454 24.0931 10.7709 24.7663C10.9995 25.4505 11.1267 26.1457 11.0003 26.7411L10.9456 27.0021L10.9061 26.7356ZM10.5035 24.3365C10.7435 25.0997 10.857 25.7466 10.9496 26.3628C10.973 25.8836 10.8594 25.3497 10.6823 24.82C10.6275 24.6578 10.568 24.4955 10.5035 24.3365ZM12.0229 27.5547C12.0889 26.8683 11.9295 26.092 11.6734 25.3233C11.5527 24.9626 11.4102 24.604 11.2596 24.2576C11.7032 25.5372 11.8763 26.5689 12.0229 27.5547ZM11.7612 25.2696C12.0664 26.1819 12.2362 27.1106 12.068 27.9034L12.0132 28.1643L11.9673 27.8518C11.7604 26.4396 11.5446 24.9681 10.5736 22.8222L10.6549 22.751L10.6565 22.7543C11.0253 23.4779 11.4593 24.3661 11.7612 25.2696ZM20.9303 26.7411C20.8039 26.1457 20.9311 25.4505 21.1598 24.7663C21.3852 24.0931 21.7089 23.4308 21.9834 22.8902L21.985 22.8869L22.0664 22.9582C21.3441 24.5547 21.1839 25.649 21.0293 26.6994L20.985 27.0021L20.9303 26.7411ZM21.2483 24.8211C21.0712 25.3497 20.9569 25.8836 20.981 26.3639C21.0736 25.7466 21.1871 25.1007 21.4271 24.3365C21.3627 24.4966 21.3023 24.6578 21.2483 24.82V24.8211Z" fill="#FFFFFE"/>
<mask id="mask3_5133_18181" style="mask-type:luminance" maskUnits="userSpaceOnUse" x="2" y="28" width="27" height="4">
<path d="M2.8877 28.3037H28.8587V32H2.8877V28.3037Z" fill="white"/>
</mask>
<g mask="url(#mask3_5133_18181)">
<path fill-rule="evenodd" clip-rule="evenodd" d="M28.7458 31.9978C20.092 29.4309 11.5316 29.4309 2.95996 31.9978C11.4326 27.3958 20.0155 26.943 28.7458 31.9978Z" fill="#FFFFFE"/>
</g>
<path fill-rule="evenodd" clip-rule="evenodd" d="M22.5748 13.2763L27.9854 14.8421C28.0152 14.6996 28.0724 14.5647 28.1553 14.4518C28.2431 14.3322 28.3485 14.2533 28.4597 14.2138C28.0039 12.0296 27.9194 9.72589 28.1859 7.48357C28.0056 7.49892 27.822 7.41449 27.6851 7.22919C27.6062 7.12063 27.5523 6.99125 27.5225 6.85419L27.5853 6.82349C25.5474 7.79936 23.2535 8.47041 21.3252 8.80374V9.14585C21.4661 9.1305 21.5901 9.13269 21.7769 9.2237L22.3534 9.50878C22.8816 9.77084 22.7382 11.761 22.6481 12.5757C22.6223 12.8048 22.5989 13.0406 22.574 13.2763H22.5748ZM25.5233 11.8246C25.0531 11.886 24.636 11.4167 24.5909 10.7785C24.5458 10.1393 24.8912 9.57128 25.3614 9.51098C25.9331 9.43642 26.388 10.136 26.2817 10.8882C26.2125 11.3816 25.9097 11.7741 25.5233 11.8246Z" fill="#FFFFFE"/>
<path fill-rule="evenodd" clip-rule="evenodd" d="M25.4222 10.7127L25.4472 11.3136C25.2258 11.3278 25.2217 11.0285 25.2153 11.0076C25.2129 10.9989 25.1887 10.9748 25.1879 11.0493C25.1871 11.1074 25.1799 11.3355 25.2032 11.3607C25.2467 11.409 25.3868 11.4133 25.4504 11.4068L25.4609 11.6491L25.5567 11.6425L25.5462 11.3859C25.8135 11.2829 25.8731 10.8695 25.6428 10.5921L25.5084 10.4572L25.4883 9.94625C25.6783 9.93748 25.6887 10.1765 25.6928 10.1853C25.696 10.1919 25.7209 10.2171 25.7177 10.1327L25.7081 9.88046L25.4834 9.85634L25.4746 9.61401L25.3788 9.62059L25.3892 9.87936C25.1469 9.98024 25.1066 10.3278 25.3007 10.5811C25.3304 10.6206 25.3675 10.6612 25.4118 10.7028L25.4222 10.7127ZM25.3924 9.97914L25.4077 10.3585C25.2942 10.2313 25.2837 10.068 25.3924 9.97914ZM25.5221 10.8103C25.6678 10.9704 25.6759 11.1919 25.5414 11.2829L25.5221 10.8103Z" fill="#FFFFFE"/>
<path fill-rule="evenodd" clip-rule="evenodd" d="M6.32455 13.2665L6.35434 13.989C6.08783 14.0066 6.083 13.6469 6.07415 13.6206C6.07173 13.6107 6.04275 13.5822 6.04114 13.6722C6.04033 13.7412 6.03228 14.0164 6.05965 14.0472C6.11279 14.1053 6.28188 14.1107 6.35837 14.1031L6.37044 14.3947L6.48558 14.386L6.4727 14.0768C6.79556 13.9539 6.86803 13.455 6.58944 13.1217L6.42761 12.9583L6.40345 12.3432C6.63292 12.3322 6.645 12.6195 6.64983 12.6305C6.65386 12.6382 6.68445 12.6689 6.67962 12.568L6.66835 12.2643L6.39782 12.2347L6.38735 11.9419L6.27141 11.9507L6.28429 12.2632C5.99202 12.3849 5.94371 12.8026 6.17721 13.1086C6.21424 13.1557 6.25933 13.205 6.31167 13.2544L6.32455 13.2665ZM6.28832 12.3827L6.30764 12.8399C6.17077 12.6875 6.15708 12.489 6.28832 12.3827ZM6.44532 13.3838C6.62085 13.5768 6.6297 13.8432 6.46787 13.9529L6.44532 13.3838Z" fill="#FFFFFE"/>
</g>
<defs>
<clipPath id="clip0_5133_18181">
<rect width="32" height="32" fill="white"/>
</clipPath>
</defs>
</svg>